<svg width="0" height="0" class="hidden">
  <symbol xmlns="http://www.w3.org/2000/svg" viewBox="0 0 25 25" id="Frame (3)">
    <path d="M21.3379 0H3.66211C1.64299 0 0 1.64299 0 3.66211V21.3379C0 23.357 1.64299 25 3.66211 25H21.3379C23.357 25 25 23.357 25 21.3379V3.66211C25 1.64299 23.357 0 21.3379 0ZM12.5488 19.043C8.91399 19.043 5.95703 16.086 5.95703 12.4512C5.95703 8.81634 8.91399 5.85938 12.5488 5.85938C16.1837 5.85938 19.1406 8.81634 19.1406 12.4512C19.1406 16.086 16.1837 19.043 12.5488 19.043ZM19.873 7.32422C18.6615 7.32422 17.6758 6.3385 17.6758 5.12695C17.6758 3.91541 18.6615 2.92969 19.873 2.92969C21.0846 2.92969 22.0703 3.91541 22.0703 5.12695C22.0703 6.3385 21.0846 7.32422 19.873 7.32422Z"></path>
    <path d="M19.873 4.39453C19.4689 4.39453 19.1406 4.72279 19.1406 5.12695C19.1406 5.53112 19.4689 5.85938 19.873 5.85938C20.2772 5.85938 20.6055 5.53112 20.6055 5.12695C20.6055 4.72279 20.2772 4.39453 19.873 4.39453Z" ></path>
    <path d="M12.5488 7.32422C9.72214 7.32422 7.42188 9.62448 7.42188 12.4512C7.42188 15.2779 9.72214 17.5781 12.5488 17.5781C15.3755 17.5781 17.6758 15.2779 17.6758 12.4512C17.6758 9.62448 15.3755 7.32422 12.5488 7.32422Z"></path>
  </symbol>
  <symbol xmlns="http://www.w3.org/2000/svg" viewBox="0 0 30 28" id="Frame (2)">
    <path d="M25.6055 0H4.39453C1.97159 0 0 1.81788 0 4.05192V23.6092C0 25.8433 1.97159 27.6611 4.39453 27.6611H25.6055C28.0284 27.6611 30 25.8433 30 23.6092V4.05192C30 1.81788 28.0284 0 25.6055 0ZM10.6055 21.9344H7.08984V10.589H10.6055V21.9344ZM10.6055 8.96826H7.08984V5.72672H10.6055V8.96826ZM22.9102 21.9344H19.3945V15.4513C19.3945 14.5578 18.6058 13.8306 17.6367 13.8306C16.6676 13.8306 15.8789 14.5578 15.8789 15.4513V21.9344H12.3633V10.589H15.8789V11.2C16.7999 10.936 17.3982 10.589 18.5156 10.589C20.8999 10.5913 22.9102 12.5635 22.9102 14.8942V21.9344Z"></path>
  </symbol>
  <symbol xmlns="http://www.w3.org/2000/svg" viewBox="0 0 30 28" id="Frame (1)">
    <path d="M30 5.25392C28.8844 5.70514 27.6956 6.00423 26.4562 6.14945C27.7312 5.44754 28.7044 4.34456 29.1619 3.01509C27.9731 3.66859 26.6606 4.13018 25.2619 4.38778C24.1331 3.2796 22.5244 2.59326 20.7694 2.59326C17.3644 2.59326 14.6231 5.14154 14.6231 8.26552C14.6231 8.71502 14.6644 9.14722 14.7656 9.55868C9.6525 9.32875 5.12813 7.06918 2.08875 3.6271C1.55812 4.47595 1.24688 5.44754 1.24688 6.49348C1.24688 8.45742 2.34375 10.1983 3.97875 11.2062C2.99062 11.189 2.02125 10.9244 1.2 10.5078C1.2 10.5251 1.2 10.5476 1.2 10.57C1.2 13.3258 3.33187 15.6147 6.1275 16.142C5.62687 16.2682 5.08125 16.3287 4.515 16.3287C4.12125 16.3287 3.72375 16.308 3.35062 16.2319C4.1475 18.4777 6.40875 20.1287 9.0975 20.1823C7.005 21.6915 4.34812 22.6009 1.47188 22.6009C0.9675 22.6009 0.48375 22.5802 0 22.5231C2.72438 24.143 5.95312 25.0679 9.435 25.0679C20.7525 25.0679 26.94 16.4238 26.94 8.93112C26.94 8.68044 26.9306 8.43841 26.9175 8.1981C28.1381 7.39938 29.1637 6.40185 30 5.25392Z"></path>
  </symbol>
  <symbol xmlns="http://www.w3.org/2000/svg" viewBox="0 0 13 24" id="Frame">
    <path d="M10.6266 3.98062H13V0.168814C12.5905 0.116871 11.1823 0 9.54229 0C6.12032 0 3.77619 1.98482 3.77619 5.6328V8.99011H0V13.2514H3.77619V23.9736H8.40597V13.2524H12.0294L12.6046 8.99111H8.40488V6.05534C8.40597 4.82369 8.7656 3.98062 10.6266 3.98062Z"></path>
  </symbol>
  <symbol xmlns="http://www.w3.org/2000/svg" viewBox="0 0 82 75" id="Frame (6)">
    <path d="M26.24 3.0462C20.418 5.59834 15.252 9.71469 12.136 14.7366C4.34598 27.3327 4.42798 46.4326 17.63 55.4062C33.62 66.2734 61.91 60.7575 63.796 38.5292C65.682 16.1362 50.266 -7.32702 26.24 3.0462Z"></path>
    <path d="M28.946 9.55002C24.6 11.4435 20.828 14.4896 18.532 18.1944C12.71 27.5797 12.792 41.7399 22.632 48.4084C34.522 56.4765 55.514 52.3601 56.908 35.8947C58.22 19.3469 46.822 1.8936 28.946 9.55002Z"></path>
    <path d="M48.708 52.6893C52.726 57.7936 55.186 60.2634 58.958 63.3918C61.664 65.6146 64.37 67.8375 66.994 70.0603C69.208 71.8715 71.832 73.8474 74.62 73.3534C77.572 72.8594 79.622 69.4017 78.638 66.5202C78.31 65.5323 77.654 64.6267 76.916 63.8034C71.832 57.2996 65.928 51.4544 59.368 46.3501L48.708 52.6893Z"></path>
    <path d="M63.14 66.7672L72.57 58.4521L74.374 60.5103L65.19 68.4137L63.14 66.7672Z"></path>
    <path d="M66.4199 69.5664L75.3579 61.8276L76.9159 63.8035L68.3059 71.1306L66.4199 69.5664Z"></path>
  </symbol>
  <symbol xmlns="http://www.w3.org/2000/svg" viewBox="0 0 83 75" id="Group (1)">
    <path d="M35.923 25.6696C38.2813 22.5801 41.7996 0.559416 48.1225 6.57315C52.24 10.4763 54.7003 21.4104 58.2314 25.5552C62.5402 30.6026 84.1474 25.4916 82.9364 33.5777C82.095 39.1846 69.972 42.7191 66.7978 47.2071C60.6917 55.8272 71.081 61.7012 70.4309 70.1179C69.7425 78.9413 56.1281 70.0797 51.9851 67.6386C48.5687 65.6297 46.5035 63.6209 42.5518 64.689C35.6935 66.5324 32.1624 74.0719 24.8963 74.9746C17.5536 75.89 25.0875 60.0356 26.1201 57.6072C26.9996 55.5476 30.7219 50.0551 30.1738 47.7666C29.1795 43.6091 20.8171 42.3122 17.3624 41.2061C11.5112 39.3499 8.03113 33.0438 14.6727 31.9757C22.487 30.7043 32.0859 30.6916 35.923 25.6696Z"></path>
    <path d="M40.9329 33.0312C42.2332 31.3275 44.1709 19.2365 47.6382 22.5421C49.8945 24.6908 51.2585 30.6918 53.1962 32.9676C55.5673 35.7393 67.4353 32.9295 66.7724 37.3794C66.3136 40.4562 59.6465 42.4015 57.9001 44.8679C54.5475 49.5976 60.2584 52.8269 59.9015 57.4548C59.5191 62.2989 52.0489 57.4293 49.7671 56.0944C47.8931 54.9883 46.7587 53.8822 44.5788 54.467C40.8182 55.4841 38.8678 59.6289 34.8778 60.1248C30.8495 60.6206 34.9798 51.9242 35.5534 50.5765C36.0379 49.445 38.0775 46.4317 37.7715 45.1731C37.2234 42.8846 32.6215 42.1726 30.7348 41.575C27.5224 40.5579 25.6103 37.087 29.2561 36.5021C33.5521 35.7902 38.8168 35.7902 40.9329 33.0312Z"></path>
    <path d="M70.3544 8.18795C70.4818 5.59429 71.03 3.01335 71.9861 0.58497C72.1008 0.292547 72.3303 -0.0634453 72.6489 0.000124799C72.8784 0.0509809 72.9931 0.305261 73.0569 0.521399C73.5923 2.11065 73.9364 3.75076 74.0767 5.42901C74.1022 5.65786 74.1277 5.91215 74.2934 6.06471C74.5611 6.30628 74.9945 6.15371 75.3132 5.98843C76.8557 5.18744 78.4109 4.37374 79.9533 3.57276C80.0298 5.55615 77.7863 6.73855 76.792 8.45498C76.639 8.72195 76.5115 9.01437 76.5752 9.31951C76.6262 9.5992 76.843 9.80262 77.0341 10.0061C78.4364 11.43 79.8387 12.854 81.2536 14.2907C79.1375 14.5195 76.9321 13.8838 75.2622 12.5616C75.2622 15.0408 74.9945 17.5328 74.4464 19.9612C73.2608 18.1176 72.3813 16.0707 71.8841 13.9474C70.6476 14.8374 69.3983 15.7146 68.1617 16.6046C68.7992 15.2697 69.4366 13.9347 70.074 12.6124C70.1504 12.4345 70.2396 12.2565 70.2269 12.0658C70.2014 11.7606 69.9337 11.5445 69.6788 11.3664C68.302 10.4638 65.5357 9.76445 65.1915 7.9591C66.6066 7.37426 68.8374 7.90824 70.3544 8.18795Z"></path>
    <path d="M4.42343 57.6072C4.47443 55.6366 4.8951 53.6658 5.65996 51.8477C5.73644 51.657 5.87667 51.4282 6.08063 51.4536C6.27184 51.4663 6.36108 51.6825 6.42482 51.8605C6.82 53.0683 7.0877 54.3143 7.21517 55.573C7.24067 55.7637 7.26617 55.9671 7.39364 56.0942C7.66134 56.3358 8.06927 56.107 8.34972 55.8908C9.34402 55.1406 10.4658 54.5813 11.6513 54.2253C11.4857 55.7383 9.84118 56.6155 9.12729 57.9632C9.05081 58.1031 8.98712 58.2556 9.01261 58.4209C9.03811 58.5989 9.17828 58.7514 9.30583 58.8786C10.3893 59.9466 11.4729 61.0273 12.5437 62.108C10.9885 62.5403 9.39501 61.6629 8.01827 60.8239C8.05652 62.7055 7.87806 64.5872 7.45738 66.418C6.56505 64.994 5.91491 63.4303 5.54523 61.7901C4.64015 62.5021 3.73507 63.2268 2.82998 63.9388C2.97021 62.9852 3.39088 62.0825 4.01551 61.3578C4.20673 61.1417 4.43619 60.9001 4.41069 60.6077C4.38519 60.3153 4.11749 60.0992 3.87529 59.9339C2.58777 59.0693 1.28752 58.1921 0 57.3148C0.2677 56.9842 0.803102 56.9079 1.16004 57.1495L4.42343 57.6072Z"></path>
  </symbol>
  <symbol xmlns="http://www.w3.org/2000/svg" viewBox="0 0 62 75" id="Frame (5)">
    <g clip-path="url(#clip0_1_1227)">
      <path d="M4.60606 13.9125C1.95347 15.4449 0.263427 18.2487 0.140311 21.342C-0.279402 31.8026 -0.67673 53.9098 13.7782 65.1308L26.1681 73.4913C28.9942 75.3983 32.6485 75.4949 35.5809 73.7523C39.4142 71.4764 44.546 68.0482 47.5119 64.4895C47.6463 64.3249 47.7861 64.1716 47.9316 64.0184C49.8119 62.0829 63.9702 46.5994 61.771 21.0696C61.5191 18.1466 59.8795 15.5243 57.3723 14.0543L35.4354 1.21C32.7044 -0.390574 29.3411 -0.401925 26.6046 1.1873L4.60606 13.9125Z"></path>
      <path d="M11.4217 19.7631C9.45751 20.8982 8.20393 22.9812 8.10881 25.2742C7.79541 33.0331 7.50441 49.4248 18.2211 57.7512L27.41 63.9548C29.5085 65.3681 32.2171 65.4418 34.3884 64.1478C37.2313 62.4621 41.0367 59.9193 43.236 57.28C43.3367 57.1609 43.4374 57.0417 43.5493 56.9338C44.9428 55.4979 55.4021 43.9022 53.8128 25.0813C53.712 23.861 50.7237 20.2114 49.7052 19.3828L34.2877 10.3412C32.2619 9.15498 29.7716 9.1493 27.7402 10.3242L11.4217 19.7631Z"></path>
      <path d="M30.9973 9.44433V37.4998H53.1637C53.1637 37.4998 54.7419 29.6729 53.8185 25.0811C53.8185 25.0811 53.5611 21.9254 49.7109 19.3826L34.2879 10.3411C34.2879 10.3411 32.7209 9.38757 30.9973 9.44433Z"></path>
      <path d="M30.9973 37.4999L30.9917 65.0615C30.9917 65.0615 29.2121 65.1637 26.9792 63.654L19.5922 58.6706C19.5922 58.6706 13.3302 54.8849 11.2932 48.6187C11.2932 48.6187 8.7245 42.8578 8.37196 36.9834L30.9973 37.4999Z"></path>
    </g>
    <defs>
      <clipPath id="clip0_1_1227">
        <rect width="62" height="75"></rect>
      </clipPath>
    </defs>
  </symbol>
  <symbol xmlns="http://www.w3.org/2000/svg" viewBox="0 0 290 183" id="Vector">
    <path d="M165.714 7.95376C82.8571 7.18884 -2.91876 23.3955 2.35397 107.538C5.33565 132.849 39.9224 183.002 154.416 181.115C210.438 181.115 286.045 146.779 283.409 79.2389C280.428 51.8832 287.834 -4.14564 130.406 1.88853C124.756 2.10509 80.0324 5.66147 65.9091 11.3214C30.1298 21.2261 -25.8929 63.6745 22.1269 121.687C36.1815 138.667 69.1107 170.645 174.188 166.494C214.519 164.922 339.903 109.896 263.636 38.677C235.86 12.7392 165.714 -9.43301 34.3669 26.5345" stroke="#FBC8B8" stroke-width="3"></path>
  </symbol>
  <symbol xmlns="http://www.w3.org/2000/svg" viewBox="0 0 75 36" id="Frame (4)">
    <g clip-path="url(#clip0_1_1275)">
      <path d="M5.50551 27.9333C11.355 23.0542 18.4336 19.844 25.9678 18.6872C33.9041 17.4685 42.8971 17.5259 50.0289 19.2479C54.9145 20.4313 55.6086 20.6477 56.8334 21.4027C54.7244 23.9902 47.8138 28.3705 48.2073 33.6824C48.2913 34.8481 49.6443 35.453 50.5771 34.751C56.4664 30.3133 68.7181 23.0409 73.9 18.4929C74.4438 18.0159 75.0363 17.4331 75.0009 16.709C74.9699 16.0069 74.3643 15.4902 73.8071 15.062C66.7461 9.67059 59.3315 4.73841 51.6339 0.305189C50.5771 -0.304158 49.1711 0.0225933 48.5964 1.09999C48.0924 2.03608 48.6318 2.76024 49.1401 3.40492C51.5454 6.45606 53.9506 9.50721 56.3559 12.5628C43.9936 7.34801 29.549 7.57321 17.1869 12.6996C10.2497 15.5742 4.48417 20.7537 1.10181 27.4432C-0.710957 31.0375 -0.923183 33.2939 5.50551 27.9333Z"></path>
    </g>
    <defs>
      <clipPath id="clip0_1_1275">
        <rect width="75" height="36"></rect>
      </clipPath>
    </defs>
  </symbol>
  <symbol xmlns="http://www.w3.org/2000/svg" viewBox="0 0 75 36" id="Group">
    <path d="M5.50588 7.73386C11.3554 12.6712 18.434 15.9195 25.9681 17.0901C33.9045 18.3233 42.8975 18.2652 50.0293 16.5227C54.9149 15.3252 55.609 15.1063 56.8337 14.3422C54.7248 11.7239 47.8141 7.2915 48.2076 1.91636C48.2916 0.736768 49.6446 0.124635 50.5775 0.835068C56.4668 5.32553 68.7185 12.6846 73.9004 17.2867C74.4441 17.7693 75.0366 18.359 75.0013 19.0918C74.9703 19.8023 74.3646 20.325 73.8075 20.7584C66.7465 26.214 59.3319 31.205 51.6343 35.6909C50.5775 36.3075 49.1715 35.9768 48.5967 34.8866C48.0926 33.9394 48.6321 33.2067 49.1405 32.5543C51.5457 29.4668 53.951 26.3794 56.3562 23.2874C43.994 28.5643 29.5494 28.3364 17.1871 23.1489C10.25 20.2401 4.48454 14.999 1.10218 8.22981C-0.710591 4.59276 -0.922817 2.30955 5.50588 7.73386Z"></path>
  </symbol>
</svg>